<?xml version="1.0" encoding="UTF-8" standalone="no"?>
<!-- Created with Inkscape (http://www.inkscape.org/) -->

<svg
   width="50mm"
   height="50mm"
   viewBox="0 0 50 50"
   version="1.1"
   id="svg5"
   inkscape:version="1.1 (c68e22c387, 2021-05-23)"
   sodipodi:docname="main.svg"
   xmlns:inkscape="http://www.inkscape.org/namespaces/inkscape"
   xmlns:sodipodi="http://sodipodi.sourceforge.net/DTD/sodipodi-0.dtd"
   xmlns="http://www.w3.org/2000/svg"
   xmlns:svg="http://www.w3.org/2000/svg">
  <sodipodi:namedview
     id="namedview7"
     pagecolor="#ffffff"
     bordercolor="#666666"
     borderopacity="1.0"
     inkscape:pageshadow="2"
     inkscape:pageopacity="0.0"
     inkscape:pagecheckerboard="0"
     inkscape:document-units="mm"
     showgrid="false"
     width="50mm"
     inkscape:zoom="3.0075196"
     inkscape:cx="84.953727"
     inkscape:cy="105.23622"
     inkscape:window-width="1920"
     inkscape:window-height="1015"
     inkscape:window-x="0"
     inkscape:window-y="28"
     inkscape:window-maximized="1"
     inkscape:current-layer="layer1" />
  <defs
     id="defs2">
    <inkscape:path-effect
       effect="fillet_chamfer"
       id="path-effect62166"
       is_visible="true"
       lpeversion="1"
       satellites_param="F,0,0,1,0,0.52916667,0,1 @ F,0,0,1,0,0.52916667,0,1 @ F,0,0,1,0,0.52916667,0,1 @ F,0,0,1,0,0.52916667,0,1 @ F,0,0,1,0,0.52916667,0,1 @ F,0,0,1,0,0.52916667,0,1 @ F,0,0,1,0,0.52916667,0,1 @ F,0,0,1,0,0.52916667,0,1 @ F,0,0,1,0,0.52916667,0,1 @ F,0,0,1,0,0.52916667,0,1"
       unit="px"
       method="auto"
       mode="F"
       radius="2"
       chamfer_steps="1"
       flexible="false"
       use_knot_distance="true"
       apply_no_radius="true"
       apply_with_radius="true"
       only_selected="false"
       hide_knots="false" />
    <inkscape:path-effect
       effect="fillet_chamfer"
       id="path-effect62147"
       is_visible="true"
       lpeversion="1"
       satellites_param="F,0,0,1,0,0.52916667,0,1 @ F,0,0,1,0,0.52916667,0,1 @ F,0,0,1,0,0.52916667,0,1 @ F,0,0,1,0,0.52916667,0,1 @ F,0,0,1,0,0.52916667,0,1 @ F,0,0,1,0,0.52916667,0,1 @ F,0,0,1,0,0.52916667,0,1 @ F,0,0,1,0,0.52916667,0,1 @ F,0,0,1,0,0.52916667,0,1 @ F,0,0,1,0,0.52916667,0,1 @ F,0,0,1,0,0.52916667,0,1"
       unit="px"
       method="auto"
       mode="F"
       radius="2"
       chamfer_steps="1"
       flexible="false"
       use_knot_distance="true"
       apply_no_radius="true"
       apply_with_radius="true"
       only_selected="false"
       hide_knots="false" />
    <inkscape:path-effect
       effect="fillet_chamfer"
       id="path-effect62128"
       is_visible="true"
       lpeversion="1"
       satellites_param="F,0,0,1,0,0.52916667,0,1 @ F,0,0,1,0,0.52916667,0,1 @ F,0,0,1,0,0.52916667,0,1 @ F,0,0,1,0,0.52916667,0,1 @ F,0,0,1,0,0.52916667,0,1 @ F,0,0,1,0,0.52916667,0,1 @ F,0,0,1,0,0.52916667,0,1 @ F,0,0,1,0,0.52916667,0,1 @ F,0,0,1,0,0.52916667,0,1 @ F,0,0,1,0,0.52916667,0,1 @ F,0,0,1,0,0.52916667,0,1"
       unit="px"
       method="auto"
       mode="F"
       radius="2"
       chamfer_steps="1"
       flexible="false"
       use_knot_distance="true"
       apply_no_radius="true"
       apply_with_radius="true"
       only_selected="false"
       hide_knots="false" />
    <inkscape:path-effect
       effect="fillet_chamfer"
       id="path-effect62094"
       is_visible="true"
       lpeversion="1"
       satellites_param="F,0,0,1,0,0.52916667,0,1 @ F,0,0,1,0,0.52916667,0,1 @ F,0,0,1,0,0.52916667,0,1 @ F,0,0,1,0,0.52916667,0,1 @ F,0,0,1,0,0.52916667,0,1 @ F,0,0,1,0,0.52916667,0,1 @ F,0,0,1,0,0.52916667,0,1 @ F,0,0,1,0,0.52916667,0,1 @ F,0,0,1,0,0.52916667,0,1 @ F,0,0,1,0,0.52916667,0,1"
       unit="px"
       method="auto"
       mode="F"
       radius="2"
       chamfer_steps="1"
       flexible="false"
       use_knot_distance="true"
       apply_no_radius="true"
       apply_with_radius="true"
       only_selected="false"
       hide_knots="false" />
    <inkscape:path-effect
       effect="fillet_chamfer"
       id="path-effect61985"
       is_visible="true"
       lpeversion="1"
       satellites_param="F,0,0,1,0,2.1166667,0,1 @ F,0,0,1,0,2.1166667,0,1 @ F,0,0,1,0,2.1166667,0,1 @ F,0,0,1,0,2.1166667,0,1"
       unit="px"
       method="auto"
       mode="F"
       radius="8"
       chamfer_steps="1"
       flexible="false"
       use_knot_distance="true"
       apply_no_radius="true"
       apply_with_radius="true"
       only_selected="false"
       hide_knots="false" />
    <inkscape:path-effect
       effect="fillet_chamfer"
       id="path-effect61983"
       is_visible="true"
       lpeversion="1"
       satellites_param="F,0,0,1,0,2.1166667,0,1 @ F,0,0,1,0,2.1166667,0,1 @ F,0,0,1,0,2.1166667,0,1 @ F,0,0,1,0,2.1166667,0,1"
       unit="px"
       method="auto"
       mode="F"
       radius="8"
       chamfer_steps="1"
       flexible="false"
       use_knot_distance="true"
       apply_no_radius="true"
       apply_with_radius="true"
       only_selected="false"
       hide_knots="false" />
    <inkscape:path-effect
       effect="fillet_chamfer"
       id="path-effect60744"
       is_visible="true"
       lpeversion="1"
       satellites_param="F,0,0,1,0,1.3229167,0,1 @ F,0,0,1,0,1.3229167,0,1 @ F,0,0,1,0,1.3229167,0,1 @ F,0,0,1,0,1.3229167,0,1"
       unit="px"
       method="auto"
       mode="F"
       radius="5"
       chamfer_steps="1"
       flexible="false"
       use_knot_distance="true"
       apply_no_radius="true"
       apply_with_radius="true"
       only_selected="false"
       hide_knots="false" />
    <inkscape:path-effect
       effect="fillet_chamfer"
       id="path-effect60742"
       is_visible="true"
       lpeversion="1"
       satellites_param="F,0,0,1,0,1.3229167,0,1 @ F,0,0,1,0,1.3229167,0,1 @ F,0,0,1,0,1.3229167,0,1 @ F,0,0,1,0,1.3229167,0,1"
       unit="px"
       method="auto"
       mode="F"
       radius="5"
       chamfer_steps="1"
       flexible="false"
       use_knot_distance="true"
       apply_no_radius="true"
       apply_with_radius="true"
       only_selected="false"
       hide_knots="false" />
    <inkscape:path-effect
       effect="fillet_chamfer"
       id="path-effect60740"
       is_visible="true"
       lpeversion="1"
       satellites_param="F,0,0,1,0,1.3229167,0,1 @ F,0,0,1,0,1.3229167,0,1 @ F,0,0,1,0,1.3229167,0,1 @ F,0,0,1,0,1.3229167,0,1"
       unit="px"
       method="auto"
       mode="F"
       radius="5"
       chamfer_steps="1"
       flexible="false"
       use_knot_distance="true"
       apply_no_radius="true"
       apply_with_radius="true"
       only_selected="false"
       hide_knots="false" />
  </defs>
  <g
     inkscape:label="Layer 1"
     inkscape:groupmode="layer"
     id="layer1">
    <path
       id="path61333"
       style="fill:#09254a;fill-opacity:1;stroke-width:0.105329"
       d="m 39.745377,9.7606444 c -1.67324,-0.1434245 -4.255652,-0.375214 -4.859512,1.6441196 -0.03977,2.707947 0.05458,5.43435 -0.01971,8.14936 0.500147,1.967184 2.868978,1.872964 4.482222,1.69544 2.124738,-0.501821 4.676633,0.792744 6.49033,-0.655957 1.242345,-2.354932 -0.08427,-5.100647 0.613705,-7.582906 0.564199,-2.817271 -2.450527,-3.8664084 -4.661419,-3.2060099 -0.682054,0.00794 -1.364864,0.00253 -2.045621,-0.044047 z M 25.33282,9.9895709 c -1.910403,0.2805451 -5.115779,-0.933999 -5.834131,1.6136281 -0.250651,2.067554 -0.04511,4.16707 -0.174802,6.248467 -0.491444,2.112335 1.002145,4.157734 3.294857,3.660748 2.236263,-0.377141 4.512835,0.367334 6.721829,-0.217132 2.704647,-0.859901 1.031808,-4.023784 1.407555,-6.01231 0.211249,-2.100881 0.591843,-5.6805147 -2.594893,-5.3056636 -0.940754,-0.020691 -1.88057,0.1059716 -2.820415,0.012263 z m -15.188736,0.040308 c -1.850493,0.398612 -4.0285231,-0.7499183 -5.6301533,0.616656 -1.1689849,1.549792 -0.6509601,3.655401 -0.6755895,5.461262 0.2028443,1.583451 -0.8431342,3.467339 0.632338,4.704619 2.1126196,1.652163 4.8412616,0.167499 7.2648548,0.712202 2.652191,0.670006 4.256112,-1.773294 3.604298,-4.18317 -0.433129,-1.749054 0.370369,-3.465528 0.0036,-5.205505 -0.220149,-2.4506473 -2.794907,-2.1963744 -4.575204,-2.103484 l -0.312061,-0.0016 -0.312062,-9.72e-4 z m 24.747843,16.372643 c -1.917821,0.245206 -5.01275,-0.87436 -5.733278,1.693172 -0.504979,2.97811 2.969346,3.154245 5.037923,2.831181 3.330426,-0.02668 6.662619,0.02058 9.991143,-0.120097 1.929407,-1.131463 0.997536,-4.819719 -1.366129,-4.49093 -2.148941,0.268641 -4.358949,0.03338 -6.532326,0.09323 -0.465776,-0.0025 -0.931559,-0.0048 -1.397333,-0.0066 z m -21.23798,0.0041 c -2.669315,0.149958 -5.3823152,-0.30518 -8.0162762,0.309603 -1.9840629,1.736324 0.2144246,5.175906 2.6365289,4.202607 4.9104303,-0.05065 9.8230083,0.04304 14.7329163,-0.08698 2.386436,-0.569008 1.67024,-4.807255 -0.80056,-4.463732 -2.84246,0.125084 -5.703689,0.02569 -8.552609,0.0385 z m 16.067752,9.301238 c -2.348716,0.08894 -4.729161,-0.177479 -7.048665,0.313161 -1.878973,2.089662 0.706935,5.339805 3.223063,4.166881 6.22124,0.04307 12.448273,0.08565 18.670242,-0.08588 2.196411,-1.270639 0.742773,-5.27513 -1.823125,-4.421658 -4.33605,0.167484 -8.68199,-0.04322 -13.021515,0.0275 z m -20.4018547,5.3e-4 c -1.9029091,-0.338407 -5.3477652,-0.112023 -4.9158384,2.611223 0.3275909,2.120477 2.8808485,2.146978 4.5563566,1.961532 2.8472725,-0.167821 5.7073975,0.01555 8.5580035,-0.136384 2.007484,-1.135264 0.974836,-5.026025 -1.467243,-4.470613 -2.224674,0.0952 -4.491927,0.03591 -6.7312787,0.03424 z" />
  </g>
</svg>
