<?xml version="1.0" encoding="UTF-8" standalone="no"?>
<!-- Created with Inkscape (http://www.inkscape.org/) -->

<svg
   width="50mm"
   height="50mm"
   viewBox="0 0 50 50"
   version="1.1"
   id="svg878"
   sodipodi:docname="drawing.svg"
   inkscape:version="1.1 (c68e22c387, 2021-05-23)"
   xmlns:inkscape="http://www.inkscape.org/namespaces/inkscape"
   xmlns:sodipodi="http://sodipodi.sourceforge.net/DTD/sodipodi-0.dtd"
   xmlns="http://www.w3.org/2000/svg"
   xmlns:svg="http://www.w3.org/2000/svg">
  <sodipodi:namedview
     id="namedview880"
     pagecolor="#ffffff"
     bordercolor="#666666"
     borderopacity="1.0"
     inkscape:pageshadow="2"
     inkscape:pageopacity="0.0"
     inkscape:pagecheckerboard="0"
     inkscape:document-units="mm"
     showgrid="false"
     inkscape:zoom="3.0075196"
     inkscape:cx="41.728738"
     inkscape:cy="60.681233"
     inkscape:window-width="1920"
     inkscape:window-height="1015"
     inkscape:window-x="0"
     inkscape:window-y="28"
     inkscape:window-maximized="1"
     inkscape:current-layer="layer1"
     width="50mm" />
  <defs
     id="defs875" />
  <g
     inkscape:label="Layer 1"
     inkscape:groupmode="layer"
     id="layer1"
     transform="translate(-54.857154,-132.04138)">
    <path
       style="fill:#f40b0b;fill-opacity:1;stroke:none;stroke-width:0.087974"
       d="m 88.773059,175.82592 c 0,-0.0244 0.37801,-0.5619 0.84002,-1.19438 1.30998,-1.79335 2.40785,-3.51305 3.54375,-5.55088 0.728138,-1.3063 1.549288,-3.44645 1.820728,-4.7453 0.16503,-0.78967 0.18327,-2.25444 0.0356,-2.86162 -0.41811,-1.71966 -2.027968,-3.25406 -3.869498,-3.68811 -0.71526,-0.16859 -1.98393,-0.17365 -2.83247,-0.0113 -2.824249,0.54037 -6.405932,2.74314 -9.949952,6.11931 l -0.690666,0.65796 -0.265821,-0.30606 c -0.65645,-0.75583 -2.205101,-2.28312 -2.927493,-2.88712 -1.536613,-1.28476 -3.224564,-2.25467 -4.61863,-2.6539 -0.924142,-0.26465 -2.399901,-0.32784 -3.208618,-0.1374 -1.31703,0.31015 -2.612154,1.15612 -3.271512,2.13692 -1.484868,2.20878 -0.375142,6.65498 3.220127,12.90168 0.442124,0.76817 0.787152,1.41339 0.766734,1.43381 -0.0511,0.0511 -3.424674,-5.03311 -4.592564,-6.92129 -2.781956,-4.49772 -5.182467,-9.21606 -6.355598,-12.4923 -0.966298,-2.69861 -1.350537,-4.55045 -1.345295,-6.48364 0.0037,-1.3518 0.167944,-2.15544 0.633703,-3.10005 0.782982,-1.58796 2.782525,-3.03405 5.069901,-3.66659 0.288166,-0.0797 1.016497,-0.15849 1.69331,-0.18319 1.831297,-0.0669 3.335046,0.29236 5.441211,1.29976 1.125202,0.5382 3.11953,1.81008 4.191934,2.67342 1.915478,1.54203 4.24684,3.86454 5.502249,5.48135 l 0.223467,0.2878 0.78972,-0.77166 c 5.134012,-5.01654 10.380273,-8.50298 14.643243,-9.73129 2.645558,-0.76228 5.174138,-0.64513 7.106311,0.32922 1.23276,0.62166 2.46804,1.72399 3.25168,2.90176 0.75905,1.14078 1.15874,2.83378 1.04009,4.40555 -0.43425,5.75238 -5.201393,14.09858 -14.233441,24.91956 -1.37482,1.64712 -1.65226,1.95575 -1.65226,1.83798 z"
       id="path1758" />
  </g>
</svg>
